<svg width="24" height="24" viewBox="0 0 24 24" fill="none" xmlns="http://www.w3.org/2000/svg">
<path d="M22.5003 9C22.5003 9.19891 22.4213 9.38968 22.2806 9.53033C22.14 9.67098 21.9492 9.75 21.7503 9.75H20.2503V11.25C20.2503 11.4489 20.1713 11.6397 20.0306 11.7803C19.89 11.921 19.6992 12 19.5003 12C19.3014 12 19.1106 11.921 18.97 11.7803C18.8293 11.6397 18.7503 11.4489 18.7503 11.25V9.75H17.2503C17.0514 9.75 16.8606 9.67098 16.72 9.53033C16.5793 9.38968 16.5003 9.19891 16.5003 9C16.5003 8.80109 16.5793 8.61032 16.72 8.46967C16.8606 8.32902 17.0514 8.25 17.2503 8.25H18.7503V6.75C18.7503 6.55109 18.8293 6.36032 18.97 6.21967C19.1106 6.07902 19.3014 6 19.5003 6C19.6992 6 19.89 6.07902 20.0306 6.21967C20.1713 6.36032 20.2503 6.55109 20.2503 6.75V8.25H21.7503C21.9492 8.25 22.14 8.32902 22.2806 8.46967C22.4213 8.61032 22.5003 8.80109 22.5003 9ZM13.5003 5.25H14.2503V6C14.2503 6.19891 14.3293 6.38968 14.47 6.53033C14.6106 6.67098 14.8014 6.75 15.0003 6.75C15.1992 6.75 15.39 6.67098 15.5306 6.53033C15.6713 6.38968 15.7503 6.19891 15.7503 6V5.25H16.5003C16.6992 5.25 16.89 5.17098 17.0306 5.03033C17.1713 4.88968 17.2503 4.69891 17.2503 4.5C17.2503 4.30109 17.1713 4.11032 17.0306 3.96967C16.89 3.82902 16.6992 3.75 16.5003 3.75H15.7503V3C15.7503 2.80109 15.6713 2.61032 15.5306 2.46967C15.39 2.32902 15.1992 2.25 15.0003 2.25C14.8014 2.25 14.6106 2.32902 14.47 2.46967C14.3293 2.61032 14.2503 2.80109 14.2503 3V3.75H13.5003C13.3014 3.75 13.1106 3.82902 12.97 3.96967C12.8293 4.11032 12.7503 4.30109 12.7503 4.5C12.7503 4.69891 12.8293 4.88968 12.97 5.03033C13.1106 5.17098 13.3014 5.25 13.5003 5.25ZM19.6072 14.0934C18.2769 14.3563 16.9023 14.2874 15.605 13.8929C14.3076 13.4985 13.1274 12.7906 12.1686 11.8317C11.2097 10.8729 10.5018 9.69266 10.1073 8.3953C9.71288 7.09795 9.64402 5.72341 9.90684 4.39313C9.93259 4.26258 9.92314 4.12753 9.87947 4.00184C9.83579 3.87614 9.75946 3.76434 9.65831 3.67788C9.55716 3.59142 9.43483 3.53344 9.30387 3.50987C9.17291 3.4863 9.03804 3.49799 8.91309 3.54375C7.49291 4.06306 6.22646 4.93183 5.2307 6.06985C4.23495 7.20786 3.54198 8.57843 3.21579 10.055C2.8896 11.5315 2.94071 13.0665 3.3644 14.5181C3.78809 15.9696 4.57069 17.2911 5.63995 18.3603C6.7092 19.4296 8.03063 20.2122 9.48222 20.6359C10.9338 21.0596 12.4687 21.1107 13.9453 20.7845C15.4219 20.4583 16.7924 19.7653 17.9304 18.7696C19.0684 17.7738 19.9372 16.5074 20.4565 15.0872C20.5023 14.9622 20.514 14.8274 20.4904 14.6964C20.4668 14.5654 20.4089 14.4431 20.3224 14.342C20.2359 14.2408 20.1241 14.1645 19.9984 14.1208C19.8728 14.0771 19.7377 14.0677 19.6072 14.0934Z" fill="#1C1812"/>
</svg>
